<svg width="474" height="473" viewBox="0 0 474 473" fill="none" xmlns="http://www.w3.org/2000/svg">
<path fill-rule="evenodd" clip-rule="evenodd" d="M389.333 288.868L388.69 288.601C347.567 271.603 314.882 286.621 294.114 303.068C304.284 277.171 306.786 253.869 307.237 248.659C310.395 242.315 314.722 238.456 320.451 236.875C335.768 232.635 355.706 245.849 355.899 245.98L361.266 249.575L392.844 171.746L294.158 76.0111L215.829 84.9103C214.112 85.1772 212.42 85.4948 210.727 85.8225C195.572 66.2673 176.406 50.1954 154.243 40.9111L236.773 21.3695L409.783 62.3245L411.462 167.128C411.462 210.705 403.8 251.724 389.333 288.864V288.868ZM237.301 178.203C240.138 208.299 236.749 280.955 144.854 307.443L97.6575 224.324C101.365 186.609 118.927 153.184 145.2 129.555L146.097 130.744C168.703 160.837 168.747 192.734 146.212 220.56L142.928 224.607L151.081 231.128L154.361 227.074C180.174 195.2 180.215 158.779 154.477 124.524L153.21 122.841C168.977 110.612 187.19 101.901 206.62 97.2995C223.179 120.186 234.488 148.383 237.301 178.203V178.203ZM318.738 115.311C307.66 124.311 293.87 135.515 296.883 184.788C298.796 216.208 297.289 241.135 296.951 245.96L296.937 245.997L296.883 246.987C296.863 247.315 294.828 279.759 279.21 311.71C259.065 352.946 226.66 374.018 182.872 374.383L150.122 316.724C217.61 296.301 254.047 244.406 247.712 177.24C245.099 149.536 234.393 120.183 217.505 95.1777L290.406 86.9002L319.31 114.939C319.117 115.057 318.921 115.165 318.738 115.311V115.311ZM340.095 170.719C344.882 170.815 349.516 169.037 353.008 165.768C356.499 162.498 358.57 157.995 358.777 153.222L380.527 174.321L356.262 234.125C348.034 229.729 332.037 222.888 317.685 226.858C314.23 227.799 310.978 229.368 308.093 231.486C308.422 220.056 308.499 203.427 307.321 184.156C304.633 140.194 315.169 131.633 325.357 123.358C325.855 122.953 326.237 122.47 326.542 121.95L358.32 152.776L322.052 152.1C321.863 162.192 329.941 170.527 340.095 170.716V170.719ZM236.82 450.201C128.464 400.215 63.9324 294.753 63.9324 167.128V62.2941L134.873 45.4958C159.159 51.5604 181.806 67.0748 199.659 88.3801C138.242 105.006 92.8802 159.046 87.0906 225.016L86.9451 226.621L176.741 384.728L179.744 384.772C180.404 384.779 181.037 384.782 181.691 384.782C226.789 384.782 255.791 364.362 274.402 339.28L274.927 339.614L277.747 335.249C277.855 335.087 288.503 318.799 307.115 306.217C331.526 289.713 357.63 287.023 384.675 298.193L385.386 298.487C356.732 365.23 305.493 418.548 236.82 450.201V450.201ZM236.773 0L43.0188 45.881V167.128C43.0188 304.862 113.878 418.504 232.561 471.111L236.82 473L241.08 471.111C360.863 418.014 432.373 304.379 432.373 166.962L430.443 45.8506L236.77 0H236.773Z" fill="black"/>
</svg>
