<svg width="457" height="457" viewBox="0 0 457 457" fill="none" xmlns="http://www.w3.org/2000/svg">
<g clip-path="url(#clip0_46_2903)">
<path fill-rule="evenodd" clip-rule="evenodd" d="M382.789 271.766C379.473 262.042 374.763 252.851 368.804 244.481C358.09 229.335 335.724 206.316 294.817 196.479C314.817 191.29 330.371 179.084 332.232 146.78L332.656 139.447L325.812 141.702C325.551 141.78 298.123 149.133 235.562 108.85C220.223 98.8989 196.009 91.2163 172.305 97.9557C172.556 96.5993 172.684 95.223 172.687 93.8435C172.687 81.3665 162.753 71.2132 150.547 71.2132C138.334 71.2132 128.403 81.3632 128.403 93.8435C128.403 103.807 134.741 112.27 143.51 115.279C133.184 125.723 124.992 140.064 119.33 157.922C117.927 162.327 116.803 166.816 115.965 171.362L115.237 173.19C92.2999 230.807 107.463 262.755 118.533 286.08C128.279 306.609 134.313 319.438 114.48 340.864C104.983 328.113 96.5231 312.362 89.5095 292.03C75.8967 252.559 75.6062 113.644 75.8477 71.4417C91.8495 73.4456 120.906 72.225 154.949 48.4067C180.324 30.6524 207.582 20.8712 233.8 20.1009C260.02 20.8712 287.281 30.6556 312.653 48.4067C346.7 72.225 375.753 73.4488 391.758 71.4417C391.967 108.109 391.771 217.732 382.789 271.766V271.766ZM285.323 394.303C277.389 398.788 269.354 403.353 261.404 408.373C274.047 373.99 269.236 335.518 257.03 313.645C247.588 296.716 229.974 282.891 204.697 272.523C201.512 266.753 189.871 243.639 196.623 225.807C200.167 216.453 208.558 209.802 221.557 206.042C229.847 203.643 238.809 202.481 247.846 201.711V201.793H252.761C316.899 201.793 348.005 232.223 360.838 250.366C371.516 265.46 376.451 281.119 377.453 293.818C356.057 354.294 321.69 373.745 285.323 394.303V394.303ZM218.881 196.372C202.746 201.039 192.175 209.723 187.452 222.181C181.414 238.124 186.656 256.335 191.473 267.807C163.219 256.874 142.28 240.023 131.872 219.642C126.911 209.913 124.473 199.459 124.375 188.421C126.373 168.356 134.512 154.473 148.628 147.208C167.74 137.361 191.78 142.43 202.733 149.179C264.005 186.904 317.914 161.082 320.176 159.962L320.372 159.868C313.185 187.282 289.184 188.865 259.778 190.774C246.13 191.656 232.021 192.569 218.885 196.372H218.881ZM170.984 108.922C177.632 106.474 184.397 105.436 191.006 105.436C206.071 105.436 220.304 110.85 230.311 117.348C271.022 143.562 298.009 150.638 313.306 152.031C305.603 155.106 281.475 163.079 250.826 157.384C252.171 146.813 245.128 136.96 234.756 135.158C226.603 133.745 218.79 137.724 214.766 144.548C212.41 143.29 210.092 141.964 207.814 140.569C192.769 131.307 165.36 127.345 144.205 138.236C141.09 139.846 138.149 141.773 135.429 143.987C144.078 126.232 155.984 114.45 170.984 108.922V108.922ZM150.55 106.425C143.758 106.425 138.239 100.779 138.239 93.8435C138.239 86.9082 143.755 81.2621 150.55 81.2621C157.338 81.2621 162.86 86.9082 162.86 93.8435C162.86 100.782 157.335 106.425 150.55 106.425ZM182.305 394.3C160.236 381.833 138.908 369.764 120.759 348.707C146.33 321.638 137.528 303.071 127.384 281.697C118.514 262.999 107.874 240.558 115.994 203.686C117.419 210.85 119.83 217.783 123.158 224.286C136.098 249.638 163.236 269.856 199.586 281.243C223.542 290.819 240 303.397 248.493 318.622C261.025 341.076 264.684 385.123 245.359 419.424C241.379 422.422 237.529 425.59 233.822 428.921C217.52 414.199 199.655 404.104 182.305 394.3ZM411.036 44.8134L398.04 49.6567C396.738 50.1365 365.72 61.1742 323.759 31.8208C295.186 11.8308 264.174 0.825708 234.087 0.00652734L233.783 0L233.522 0.00652734C203.434 0.825708 172.423 11.8308 143.846 31.8208C101.895 61.1709 70.8641 50.1397 69.6435 49.6828L56.4909 44.5262L56.2886 58.919C56.1809 66.6506 53.7658 248.851 70.962 298.707C94.7966 367.822 134.447 390.22 172.788 411.888C192.305 422.916 210.745 433.33 226.867 449.812L233.819 456.914L240.771 449.809C256.896 433.33 275.326 422.916 294.84 411.891C333.172 390.224 372.809 367.825 396.643 298.707C413.836 248.851 411.428 66.6506 411.317 58.9157L411.033 44.8134H411.036Z" fill="black"/>
</g>
<defs>
<clipPath id="clip0_46_2903">
<rect width="456.914" height="456.914" fill="white"/>
</clipPath>
</defs>
</svg>
