<svg width="478" height="478" viewBox="0 0 478 478" fill="none" xmlns="http://www.w3.org/2000/svg">
<g clip-path="url(#clip0_46_2906)">
<path fill-rule="evenodd" clip-rule="evenodd" d="M314.782 401.712C361.408 349.362 368.712 299.887 362.418 256.97C369.319 264.806 376.736 268.944 384.61 269.292C384.958 269.306 385.303 269.313 385.644 269.313C392.075 269.313 398.379 266.641 404.237 261.585C402.361 279.919 399.853 295.244 396.499 304.871C377.453 359.579 347.612 382.696 314.782 401.716V401.712ZM240.918 448.382C223.42 432.792 203.971 422.134 185.085 411.787C157.649 396.755 131.267 382.294 110.153 353.517C133.983 366.402 158.338 371.325 181.079 371.319C216.529 371.319 248.048 359.453 267.474 347.547C317.085 317.139 339.85 262.408 339.936 211.476C341.647 216.276 343.251 221.114 344.746 225.986L344.654 226.03L345.005 226.839C361.483 281.301 363.827 347.854 280.568 420.803C266.969 428.606 253.442 437.22 240.918 448.382V448.382ZM224.253 105.69L235.856 130.98C234.948 130.639 234.061 130.325 233.225 130.042C232.168 129.687 231.12 129.346 230.121 128.903C216.041 122.666 195.729 124.028 183.109 125.771L192.709 109.665C197.936 108.389 212.438 105.206 224.253 105.69V105.69ZM262.101 338.564C229.176 358.747 159.153 378.776 97.397 332.969C93.0199 324.631 88.9772 315.338 85.3371 304.875C76.8764 280.588 73.748 220.302 72.7279 165.751L110.282 132.065C104.565 167.634 106.782 199.072 116.915 225.696C129.558 258.904 150.921 275.351 166.621 283.303C200.317 300.378 239.516 293.941 261.934 267.658C293.879 230.189 273.328 186.858 264.554 168.354C263.452 166.034 262.541 164.117 261.961 162.664C260.198 158.2 258.071 153.889 255.602 149.775L255.858 149.652L238.496 111.818L246.476 119.685L263.356 102.153L234.238 102.528L233.437 100.778L242.627 82.7408L292.245 96.2983C302.05 117.73 314.983 147.226 319.439 157.437L320.23 159.777C321.336 163.032 322.571 166.392 323.871 169.811C340.188 225.859 322.465 301.559 262.097 338.561L262.101 338.564ZM72.6392 72.2127C84.5217 73.0178 104.548 73.5875 128.012 71.063C173.878 66.1367 212.677 51.3578 240.918 28.1557C269.156 51.3578 307.956 66.1367 353.821 71.063C372.213 73.0301 390.74 73.4147 409.197 72.2127C409.654 101.695 410.378 183.123 405.803 243.798C399.328 253.691 391.965 259.109 385.06 258.802C375.385 258.375 365.147 246.929 356.236 226.573L354.571 222.758C349.986 207.669 344.442 193.709 339.434 181.103C337.473 176.201 335.551 171.284 333.669 166.352C332.793 163.339 331.817 160.357 330.741 157.41C330.683 157.239 330.093 155.871 329.111 153.609L328.36 151.392L328.169 151.46C322.677 138.861 309.586 109.122 300.638 89.6526L299.621 87.4351L237.244 70.3943L224.618 95.1828C208.471 94.5584 188.909 99.7816 188.032 100.027L186.016 100.573L162.094 140.727L173.953 138.022C174.28 137.954 207.782 130.469 225.969 138.523C227.265 139.093 228.602 139.55 229.96 140.004C231.768 140.611 233.474 141.188 234.88 142.085C241.642 146.404 247.68 154.878 252.344 166.587C252.985 168.197 253.991 170.329 255.209 172.898C263.772 190.959 281.594 228.534 254.083 260.794C234.781 283.44 200.723 288.837 171.268 273.911C117.116 246.486 110.985 175.924 123.301 119.036L126.713 103.295L72.5164 151.91C72.1941 125.345 72.2361 98.7767 72.6426 72.2127H72.6392ZM429.452 48.7684L417.989 50.3172C416.914 50.4571 309.726 64.2023 247.946 6.56045L240.918 0L233.884 6.56045C172.257 64.059 64.9086 50.4605 63.851 50.3172L52.3847 48.7684L52.105 60.4769C51.9139 68.5794 47.5676 259.566 65.7683 311.852C90.9116 384.074 133.768 407.553 175.211 430.257C196.411 441.866 216.433 452.831 233.583 470.193L240.918 477.62L248.253 470.193C265.406 452.831 285.426 441.87 306.622 430.257C348.065 407.553 390.922 384.078 416.065 311.852C434.272 259.566 429.926 68.5794 429.732 60.4769L429.452 48.7684V48.7684Z" fill="black"/>
</g>
<defs>
<clipPath id="clip0_46_2906">
<rect width="477.62" height="477.62" fill="white"/>
</clipPath>
</defs>
</svg>
