<svg width="473" height="473" viewBox="0 0 473 473" fill="none" xmlns="http://www.w3.org/2000/svg">
<path fill-rule="evenodd" clip-rule="evenodd" d="M233.712 0.849792L240.672 6.51497C309.582 62.5631 397.314 64.2458 403.114 64.2896H403.411L414.354 64.2222L404.635 245.096C399.783 338.794 247.13 456.917 240.635 461.901L234.336 466.733L228.03 461.911C221.421 456.859 66.2352 337.139 62.1111 246.995L54.4092 64.0435L65.4023 64.293C66.333 64.2593 163.477 65.6419 227.113 6.93311L233.712 0.853165V0.849792ZM239.671 76.3787L159.515 116.811C159.144 121.899 158.709 134.464 158.422 146.63L205.12 165.197L245.568 133.688L248.806 136.905C249.241 137.34 259.482 147.679 258.517 160.217C257.978 167.204 254.225 173.284 247.362 178.295L123.376 267.949C122.354 268.583 104.576 279.839 99.7778 296.302C113.098 319.894 134.022 346.503 162.091 375.315C163.501 376.765 164.904 378.181 166.317 379.597C180.304 386.814 195.617 387.1 213.442 380.747C234.828 373.136 296.275 326.513 296.896 326.041L300.986 322.932L307.258 331.042L303.171 334.154C300.591 336.11 239.809 382.224 216.926 390.368C207.457 393.74 198.436 395.433 189.847 395.433C187.219 395.433 184.594 395.268 181.987 394.937C198.802 410.908 216.258 426.189 234.312 440.744C246.803 430.661 276.059 406.213 305.296 375.739C340.436 339.118 364.277 305.663 375.915 277.061C372.927 267.477 365.316 258.646 355.156 253.574C347.437 249.72 331.666 244.941 312.812 256.208L227.673 314.937C218.693 320.632 205.585 328.951 191.314 328.951C179.411 328.955 166.701 323.171 154.892 305.272L152.289 301.323L156.042 298.433C156.693 297.934 221.292 248.29 276.012 210.758C277.509 209.726 279.242 208.418 281.026 207.072C283.94 204.88 286.955 202.608 289.548 201.05C300.976 194.204 308.971 181.137 310.944 166.104C313.237 148.6 307.218 131.462 293.996 117.826C268.064 95.6437 246.685 81.0255 239.671 76.3821V76.3787ZM234.521 27.7526C177.853 75.4581 103.666 83.3085 75.9065 84.5325L82.7115 246.105C83.2341 257.529 86.9839 270.441 93.7046 284.567C99.8756 273.088 110.117 264.122 117.768 259.371L241.269 170.05C245.649 166.856 247.936 163.376 248.236 159.441C248.58 154.953 246.32 150.572 244.324 147.655L206.813 176.882L178.068 165.454L178.176 165.71L173.405 167.649C159.033 173.499 150.963 177.718 152.326 196.437L152.697 201.532L142.418 202.274L142.044 197.175C141.612 191.274 142.098 186.391 143.187 182.237L125.133 182.001L125.268 171.78L147.989 172.073C152.41 166.219 158.652 162.827 164.769 160.169L147.962 153.482L148.036 149.952C148.252 139.802 148.846 115.819 149.722 112.272L150.289 109.999L240.291 64.5999L242.776 66.1713C243.815 66.8289 268.607 82.5936 300.912 110.242L301.246 110.555C316.805 126.502 323.876 146.698 321.161 167.419C318.794 185.511 308.971 201.357 294.886 209.794C292.758 211.068 289.962 213.173 287.265 215.213C285.353 216.653 283.488 218.052 281.879 219.158C235.074 251.264 180.972 292.3 166.236 303.546C184.138 327.505 201.431 319.462 221.953 306.432L307.211 247.642C324.351 237.374 343.414 236.278 359.789 244.446C368.516 248.799 375.787 255.459 380.713 263.188C382.588 256.477 383.731 250.07 384.045 244.034L392.627 84.3403C365.903 82.6543 295.479 73.8024 234.521 27.7526V27.7526ZM206.155 111.28L196.646 138.257L162.317 130.168L206.155 111.28Z" fill="black"/>
</svg>
